# xmcd CD database file
#
# Track frame offsets:
#	150
#	2116
#	15218
#	16481
#	31208
#	39562
#	57455
#	58565
#	74987
#	82476
#	96843
#	107562
#	118030
#	121106
#	126325
#	144292
#	145559
#	157630
#	158710
#	171628
#	174114
#	202134
#	212673
#	227697
#
# Disc length: 3277 seconds
#
# Revision: 6
# Processed by: cddbd v1.5.2PL0 Copyright (c) Steve Scherf et al.
# Submitted via: CDex 1.51
#
DISCID=480ccb18
DTITLE=Abdullah Ibrahim - African Magic
DYEAR=2001
DGENRE=Jazz
TTITLE0=Blue Bolero (fragment 1)
TTITLE1=Third Line Samba
TTITLE2=Blue Bolero (fragment 2)
TTITLE3=Blues For A Hip King
TTITLE4=District Six
TTITLE5=Tuang Guru
TTITLE6=Blue Bolero (fragment 3)
TTITLE7=Joan - Cape Town Flower
TTITLE8=Pule
TTITLE9=The Stride
TTITLE10=Thaba Bhosigo
TTITLE11=The Mountain
TTITLE12=Machopi - Jabulani
TTITLE13=Black Lightning
TTITLE14=Duke
TTITLE15=Solitude
TTITLE16=Eleventh Hour
TTITLE17=Blue Bolero (fragment 4)
TTITLE18=In A Sentimental Mood
TTITLE19=Moten Swing
TTITLE20=For Coltrane
TTITLE21=Whoza Mtwana
TTITLE22=Tsakwe - Royal Blue
TTITLE23=Blue Bolero
EXTD=YEAR: 2001
EXTT0=
EXTT1=
EXTT2=
EXTT3=
EXTT4=
EXTT5=
EXTT6=
EXTT7=
EXTT8=
EXTT9=
EXTT10=
EXTT11=
EXTT12=
EXTT13=
EXTT14=
EXTT15=
EXTT16=
EXTT17=
EXTT18=
EXTT19=
EXTT20=
EXTT21=
EXTT22=
EXTT23=
PLAYORDER=
